<svg width="32" height="32" viewBox="0 0 32 32" fill="none" xmlns="http://www.w3.org/2000/svg">
<path fill-rule="evenodd" clip-rule="evenodd" d="M16.0003 0.36706C7.36659 0.36706 0.367551 7.3661 0.367551 15.9999C0.367551 24.6336 7.36659 31.6326 16.0003 31.6326C24.6341 31.6326 31.6331 24.6336 31.6331 15.9999C31.6331 7.3661 24.6341 0.36706 16.0003 0.36706ZM0.157715 15.9999C0.157715 7.25021 7.2507 0.157227 16.0003 0.157227C24.75 0.157227 31.843 7.25021 31.843 15.9999C31.843 24.7495 24.75 31.8425 16.0003 31.8425C7.2507 31.8425 0.157715 24.7495 0.157715 15.9999Z" fill="white"/>
<path fill-rule="evenodd" clip-rule="evenodd" d="M0.157766 16.1049V16C0.149208 12.653 1.20886 9.39056 3.18255 6.68743L3.24445 6.60297L16.3235 16.1049H0.157766Z" fill="#FFC107"/>
<path d="M3.26699 6.74942L15.9998 16H0.262135C0.25683 12.6758 1.30919 9.43602 3.26699 6.74942ZM3.22082 6.45618L3.09755 6.62614C1.11044 9.34692 0.043596 12.6309 0.0522989 16V16.2099H16.6456L16.121 15.8301L3.39027 6.57945L3.22082 6.45618Z" fill="white"/>
<g opacity="0.15">
<path fill-rule="evenodd" clip-rule="evenodd" d="M0.262227 16.0001H0.331997C0.471072 12.9294 1.51102 9.96757 3.32216 7.48394L15.0415 16.0001H15.9999L3.26708 6.74951C1.30928 9.43611 0.256922 12.6759 0.262227 16.0001Z" fill="black"/>
</g>
<path fill-rule="evenodd" clip-rule="evenodd" d="M3.1836 25.3121C1.20941 22.6093 0.149366 19.347 0.157764 16.0001V15.8951H16.3235L3.24498 25.397L3.1836 25.3121Z" fill="#FF5722"/>
<path d="M15.9998 16.0001L3.26751 25.2507C1.30953 22.5642 0.256979 19.3244 0.262132 16.0001H15.9998ZM16.6456 15.7902H0.0522962V16.0001C0.0438187 19.3692 1.11085 22.6532 3.09807 25.374L3.22135 25.5434L3.39131 25.4201L16.1231 16.17L16.6477 15.7902H16.6456Z" fill="white"/>
<g opacity="0.15">
<path fill-rule="evenodd" clip-rule="evenodd" d="M3.2676 25.2506L3.32426 25.2092C1.63092 22.644 0.730177 19.6371 0.734357 16.5634H15.2235L15.9999 16H0.262226C0.257073 19.3243 1.30962 22.5641 3.2676 25.2506Z" fill="black"/>
</g>
<path fill-rule="evenodd" clip-rule="evenodd" d="M11.1043 31.0676C7.91854 30.0416 5.14344 28.0255 3.183 25.3128L3.12109 25.2284L16.1991 15.7254L11.204 31.1001L11.1043 31.0676Z" fill="#4CAF50"/>
<path d="M16.0002 16L11.1367 30.9676C7.9735 29.9448 5.21767 27.9422 3.26786 25.2496L16.0002 16ZM16.3994 15.4507L15.8748 15.83L3.14405 25.0812L2.97461 25.2045L3.09789 25.3744C5.07159 28.1047 7.86499 30.1339 11.0717 31.1669L11.271 31.232L11.3361 31.0321L16.199 16.065L16.3989 15.4507H16.3994Z" fill="white"/>
<g opacity="0.15">
<path fill-rule="evenodd" clip-rule="evenodd" d="M11.1364 30.9676L11.1585 30.901C8.28087 29.8208 5.78498 27.9173 3.98207 25.4279L15.7035 16.9117L15.9999 16L3.26758 25.2511C5.21764 27.9432 7.97344 29.9452 11.1364 30.9676Z" fill="black"/>
</g>
<path fill-rule="evenodd" clip-rule="evenodd" d="M16.0091 31.847C14.3473 31.8468 12.696 31.5839 11.1163 31.068L11.0166 31.036L16.0091 15.6608L21.0048 31.0349L20.9046 31.0675C19.3239 31.5828 17.6718 31.8459 16.0091 31.847Z" fill="#03A9F4"/>
<path d="M15.9999 16.0001L20.8634 30.9677C17.7034 31.9998 14.297 31.9998 11.137 30.9677L15.9999 16.0001ZM15.9999 15.3213L15.8006 15.9351L10.9371 30.9037L10.8726 31.1031L11.0719 31.1681C14.274 32.2138 17.7258 32.2138 20.9279 31.1681L21.1278 31.1036L21.0627 30.9037L16.1992 15.9351L15.9999 15.3213Z" fill="white"/>
<g opacity="0.15">
<path fill-rule="evenodd" clip-rule="evenodd" d="M20.8631 30.9676L20.8411 30.901C17.8781 31.7182 14.74 31.6452 11.8182 30.6911L16.2955 16.9112L15.9997 16L11.1367 30.9681C14.2968 31.9999 17.7032 31.9997 20.8631 30.9676Z" fill="black"/>
</g>
<path fill-rule="evenodd" clip-rule="evenodd" d="M15.8008 15.7254L28.8788 25.2273L28.8169 25.3123C26.8566 28.0253 24.0815 30.0418 20.8956 31.0681L20.7959 31.1006L15.8008 15.7254Z" fill="#3F51B5"/>
<path d="M15.9999 16L28.7323 25.2506C26.7824 27.9432 24.0266 29.9458 20.8634 30.9686L15.9999 16ZM15.6007 15.4507L15.8006 16.065L20.6641 31.0332L20.7291 31.2325L20.9285 31.1675C24.1354 30.1343 26.9288 28.1047 28.9022 25.3739L29.0255 25.2039L28.8561 25.0806L16.1232 15.83L15.5986 15.4507H15.6007Z" fill="white"/>
<g opacity="0.15">
<path fill-rule="evenodd" clip-rule="evenodd" d="M28.7323 25.2506L28.6757 25.2092C26.7589 27.612 24.1773 29.3976 21.2527 30.3433L16.7753 16.5634L16 16L20.8635 30.9681C24.0266 29.9454 26.7824 27.943 28.7323 25.2506Z" fill="black"/>
</g>
<path fill-rule="evenodd" clip-rule="evenodd" d="M15.6763 15.8951H31.842V16.0001C31.8506 19.347 30.7909 22.6094 28.8173 25.3126L28.7553 25.397L15.6763 15.8951Z" fill="#FFC107"/>
<path d="M31.7385 16.0001C31.7438 19.3243 30.6914 22.5641 28.7336 25.2507L16.0008 16.0001H31.7385ZM31.9483 15.7902H15.355L15.8796 16.17L28.6103 25.4206L28.7798 25.5439L28.903 25.374C30.8901 22.6532 31.957 19.3692 31.9483 16.0001V15.7902Z" fill="white"/>
<g opacity="0.15">
<path fill-rule="evenodd" clip-rule="evenodd" d="M31.7377 16H31.6679C31.5296 19.0704 30.4906 22.0323 28.6804 24.5162L16.9584 16H16L28.7329 25.2506C30.6906 22.564 31.743 19.3243 31.7377 16Z" fill="black"/>
</g>
<path fill-rule="evenodd" clip-rule="evenodd" d="M28.7548 6.60297L28.8162 6.68795C30.7905 9.39066 31.8505 12.653 31.842 16V16.1049H15.6763L28.7548 6.60297Z" fill="#FF5722"/>
<path d="M28.7327 6.74914C30.6907 9.43567 31.7433 12.6754 31.7381 15.9998H16.0004L28.7327 6.74914ZM28.7789 6.45642L28.6089 6.5797L15.8771 15.8298L15.3525 16.2096H31.948V15.9998C31.9563 12.6305 30.8891 9.34655 28.9017 6.62586L28.7784 6.45642H28.7789Z" fill="white"/>
<g opacity="0.15">
<path fill-rule="evenodd" clip-rule="evenodd" d="M28.7323 6.74951L28.6757 6.79095C30.369 9.35613 31.2698 12.363 31.2656 15.4367H16.7753L16 16.0001H31.7377C31.7429 12.6758 30.6903 9.43604 28.7323 6.74951Z" fill="black"/>
</g>
<path fill-rule="evenodd" clip-rule="evenodd" d="M20.7959 0.900085L20.8956 0.93261C24.0814 1.95863 26.8565 3.97471 28.8169 6.68736L28.8788 6.77182L15.8008 16.2748L20.7959 0.900085Z" fill="#4CAF50"/>
<path d="M20.8633 1.0324C24.0265 2.05523 26.7823 4.0578 28.7321 6.75043L15.9998 16L20.8633 1.0324ZM20.7285 0.770104L20.6634 0.969973L15.8005 15.935L15.6006 16.5493L16.1252 16.17L28.8559 6.91883L29.0254 6.79555L28.9047 6.62558C26.931 3.89532 24.1376 1.86606 20.9309 0.833055L20.7316 0.768005L20.7285 0.770104Z" fill="white"/>
<path opacity="0.15" fill-rule="evenodd" clip-rule="evenodd" d="M20.8635 1.03241L20.8414 1.10166C23.719 2.18186 26.2149 4.08535 28.0178 6.57471L16.2964 15.0883L16 16L28.7323 6.74887C26.7823 4.05682 24.0265 2.05482 20.8635 1.03241Z" fill="black"/>
<path fill-rule="evenodd" clip-rule="evenodd" d="M11.0044 0.965184L11.1046 0.93266C14.2857 -0.106378 17.7149 -0.106378 20.8961 0.93266L20.9952 0.965184L16.0001 16.3393L11.0044 0.965184Z" fill="#03A9F4"/>
<path d="M16.0021 0.258359C17.6528 0.258923 19.2931 0.52006 20.8624 1.03213L15.9995 16.0003L11.136 1.03265C12.7073 0.520661 14.3495 0.25936 16.0021 0.258359ZM16.0021 0.0485229C14.3272 0.0499195 12.6631 0.315478 11.071 0.835408L10.8711 0.899933L10.9361 1.0998L15.8001 16.0653L15.9995 16.6791L16.1988 16.0653L21.0623 1.09665L21.1268 0.89731L20.9275 0.832261C19.3372 0.313186 17.6749 0.0486773 16.0021 0.0485229Z" fill="white"/>
<g opacity="0.15">
<path fill-rule="evenodd" clip-rule="evenodd" d="M11.1367 1.03251L11.1588 1.09913C14.1218 0.281924 17.2598 0.354901 20.1817 1.30897L15.7038 15.0884L16.0002 16.0001L20.8631 1.03198C17.7031 0.000226855 14.2967 0.000410646 11.1367 1.03251Z" fill="black"/>
</g>
<path fill-rule="evenodd" clip-rule="evenodd" d="M3.12109 6.77291L3.183 6.68793C5.1433 3.97491 7.91842 1.95845 11.1043 0.932122L11.204 0.899597L16.1991 16.2748L3.12109 6.77291Z" fill="#3F51B5"/>
<path d="M11.1367 1.03167L16.0002 15.9998L3.26786 6.74918C5.2177 4.05657 7.97352 2.05401 11.1367 1.03114V1.03167ZM11.271 0.768847L11.0717 0.833896C7.86476 1.86701 5.0713 3.89669 3.09789 6.62747L2.97461 6.79744L3.14405 6.92072L15.8769 16.1698L16.4015 16.549L16.2016 15.9347L11.3361 0.966617L11.271 0.767273V0.768847Z" fill="white"/>
<g opacity="0.15">
<path fill-rule="evenodd" clip-rule="evenodd" d="M3.26758 6.74949L3.32423 6.79093C5.24103 4.38811 7.8226 2.60254 10.7472 1.65677L15.2246 15.4367L15.9999 16.0001L11.1364 1.03198C7.97331 2.05471 5.2175 4.05708 3.26758 6.74949Z" fill="black"/>
</g>
<path fill-rule="evenodd" clip-rule="evenodd" d="M16 0.524585C7.45317 0.524585 0.52459 7.45316 0.52459 16C0.52459 24.5468 7.45317 31.4754 16 31.4754C24.5468 31.4754 31.4754 24.5468 31.4754 16C31.4754 7.45316 24.5468 0.524585 16 0.524585ZM0 16C0 7.16345 7.16344 0 16 0C24.8366 0 32 7.16345 32 16C32 24.8366 24.8366 32 16 32C7.16344 32 0 24.8366 0 16Z" fill="#FAFAFA"/>
<path d="M15.9998 19.6724C18.0278 19.6724 19.6719 18.0283 19.6719 16.0003C19.6719 13.9722 18.0278 12.3281 15.9998 12.3281C13.9717 12.3281 12.3276 13.9722 12.3276 16.0003C12.3276 18.0283 13.9717 19.6724 15.9998 19.6724Z" fill="white"/>
<g opacity="0.1">
<path opacity="0.1" d="M16.0006 18.1508C17.0146 18.1508 17.8367 17.3288 17.8367 16.3147C17.8367 15.3007 17.0146 14.4787 16.0006 14.4787C14.9866 14.4787 14.1646 15.3007 14.1646 16.3147C14.1646 17.3288 14.9866 18.1508 16.0006 18.1508Z" fill="black"/>
</g>
<path d="M16.0006 17.8359C17.0146 17.8359 17.8367 17.0139 17.8367 15.9999C17.8367 14.9858 17.0146 14.1638 16.0006 14.1638C14.9866 14.1638 14.1646 14.9858 14.1646 15.9999C14.1646 17.0139 14.9866 17.8359 16.0006 17.8359Z" fill="#F5F5F5"/>
</svg>
